<svg version="1.2"
     class="circle-checked"
     width="20"
     height="20"
     viewBox="7883 11713 506 506"
     preserveAspectRatio="xMidYMid"
     fill-rule="evenodd"
     stroke-width="30"
     stroke-linejoin="round"
     xmlns="http://www.w3.org/2000/svg"
     xml:space="preserve">
    <g class="Page">
      <g class="com.sun.star.drawing.CustomShape">
       <g id="id3">
        <rect class="BoundingBox" stroke="none" fill="none" x="7882" y="11712" width="508" height="508"/>
        <path fill="{{fillColor}}" stroke="none"
              d="M 8135,11730 C 8268,11730 8370,11832 8370,11965 8370,12098 8268,12200 8135,12200 8002,12200 7900,12098 7900,11965 7900,11832 8002,11730 8135,11730 Z M 7900,11730 L 7900,11730 Z M 8371,12201 L 8371,12201 Z"/>
        <path fill="none" stroke="{{strokeColor}}" stroke-width="35" stroke-linejoin="round" d="M 8135,11730 C 8268,11730 8370,11832 8370,11965 8370,12098 8268,12200 8135,12200 8002,12200 7900,12098 7900,11965 7900,11832 8002,11730 8135,11730 Z"/>
       </g>
      </g>
      <g class="com.sun.star.drawing.OpenBezierShape">
       <g id="id4">
        <rect class="BoundingBox" stroke="none" fill="none" x="7996" y="11826" width="275" height="277"/>
        <path fill="none" stroke="{{strokeColor}}" stroke-width="35" stroke-linejoin="round" d="M 8014,11935 C 8211,12205 8030,11958 8124,12084 L 8252,11844"/>
       </g>
      </g>
     </g>
</svg>